/* XPM */
static char * SDL_icon_xpm[] = {
"32 32 46 1",
" 	c None",
".	c #6B6BFF",
"+	c #3D00B9",
"@	c #4848FF",
"#	c #2525FF",
"$	c #8E8EFF",
"%	c #626262",
"&	c #AAAAAA",
"*	c #310096",
"=	c #003196",
"-	c #003DB9",
";	c #B6B6B6",
">	c #6E6E6E",
",	c #620096",
"'	c #966200",
")	c #250073",
"!	c #7A7A7A",
"~	c #FF8F6B",
"{	c #FFC66B",
"]	c #FFAB8E",
"^	c #000080",
"/	c #929292",
"(	c #FFD48E",
"_	c #0000B9",
":	c #565656",
"<	c #868686",
"[	c #808080",
"}	c #B1B1FF",
"|	c #CECECE",
"1	c #A0A0A4",
"2	c #C0C0C0",
"3	c #DADADA",
"4	c #F2F2F2",
"5	c #FFFFFF",
"6	c #E6E6E6",
"7	c #C2C2C2",
"8	c #000096",
"9	c #AB8EFF",
"0	c #190050",
"a	c #000000",
"b	c #3E3E3E",
"c	c #0E0E0E",
"d	c #9E9E9E",
"e	c #001950",
"f	c #323232",
"g	c #002573",
"                                ",
"                                ",
"                                ",
"             .+@##@.$           ",
"           @@.@#######@         ",
"         @@....#########$       ",
"%..&   .@.....@+##*===--=       ",
";..@#>@@....@+#,>')=====        ",
" !..@#@......@%~{]^===*         ",
" ;..*#........./(]_#+=:         ",
"  .+##@.........<]_@@@@@[       ",
"  *####@.$;}....#>#######+      ",
" |+######!1<.@@##_#########[    ",
" &+#####>2332+##############:   ",
"43>####/35555|###############>  ",
"25&###>6555555.###############& ",
"7538#8;55555559################ ",
";530#a25555555$################:",
"252aba&5555555.########**>!/>.@*",
"|52cda;5555555@######0e         ",
"667f6a65555556######0e*!        ",
" |6%&d5555555/<,###=eg##        ",
" ;bac]&34667&]((+##eg###&       ",
"  ;](((]]]](((((>#ee####.       ",
"   ](((((((((<((>ge*####+       ",
"    2((((((((({!eee*#####       ",
"      ]~{{{{{<dd1/%fe+###;      ",
"        |;;2|        ;>##1      ",
"                        /1      ",
"                                ",
"                                ",
"                                "};
