/* XPM */
static const char * SDL_icon_xpm[] = {
"48 48 211 2",
"  	c None",
". 	c #000100",
"+ 	c #6B0002",
"@ 	c #F40000",
"# 	c #FF0000",
"$ 	c #EF0000",
"% 	c #E80000",
"& 	c #FC0003",
"* 	c #520400",
"= 	c #5E0000",
"- 	c #330000",
"; 	c #190100",
"> 	c #D80000",
", 	c #070000",
"' 	c #4E0001",
") 	c #A10002",
"! 	c #E40000",
"~ 	c #2E0102",
"{ 	c #730000",
"] 	c #A50400",
"^ 	c #410003",
"/ 	c #540000",
"( 	c #8D0100",
"_ 	c #5D0500",
": 	c #C30000",
"< 	c #4D0000",
"[ 	c #A90000",
"} 	c #0F0000",
"| 	c #4F0102",
"1 	c #570001",
"2 	c #C10000",
"3 	c #100101",
"4 	c #DE0400",
"5 	c #090100",
"6 	c #270100",
"7 	c #250003",
"8 	c #210000",
"9 	c #9E0000",
"0 	c #220101",
"a 	c #160003",
"b 	c #7F0002",
"c 	c #450101",
"d 	c #EA0300",
"e 	c #950002",
"f 	c #E90001",
"g 	c #550000",
"h 	c #3C0100",
"i 	c #450000",
"j 	c #380002",
"k 	c #700608",
"l 	c #3B0000",
"m 	c #2A0000",
"n 	c #1D0000",
"o 	c #2A0100",
"p 	c #B32926",
"q 	c #B42B2C",
"r 	c #B92528",
"s 	c #99171C",
"t 	c #620003",
"u 	c #B1282A",
"v 	c #290000",
"w 	c #BB2724",
"x 	c #870A0A",
"y 	c #8F1616",
"z 	c #8D1315",
"A 	c #8A1B1B",
"B 	c #630205",
"C 	c #831E1D",
"D 	c #871818",
"E 	c #9C1A1D",
"F 	c #860809",
"G 	c #BF2024",
"H 	c #530608",
"I 	c #A91E1F",
"J 	c #7A0400",
"K 	c #811114",
"L 	c #711412",
"M 	c #660608",
"N 	c #3E0303",
"O 	c #650300",
"P 	c #861617",
"Q 	c #A81C18",
"R 	c #7B0810",
"S 	c #931C1F",
"T 	c #780206",
"U 	c #790200",
"V 	c #730903",
"W 	c #771014",
"X 	c #631716",
"Y 	c #610002",
"Z 	c #750002",
"` 	c #9A2324",
" .	c #5C0608",
"..	c #821C1C",
"+.	c #710000",
"@.	c #6C0000",
"#.	c #6E0300",
"$.	c #4D110F",
"%.	c #430000",
"&.	c #320000",
"*.	c #811B20",
"=.	c #81100E",
"-.	c #580103",
";.	c #1E0100",
">.	c #701B19",
",.	c #590204",
"'.	c #390C0C",
").	c #530500",
"!.	c #480405",
"~.	c #5A0200",
"{.	c #4B0600",
"].	c #77100F",
"^.	c #5B0F11",
"/.	c #640100",
"(.	c #500203",
"_.	c #240808",
":.	c #340100",
"<.	c #490003",
"[.	c #620000",
"}.	c #2C0503",
"|.	c #4B0000",
"1.	c #110203",
"2.	c #570A05",
"3.	c #930000",
"4.	c #7E0001",
"5.	c #880001",
"6.	c #500200",
"7.	c #690000",
"8.	c #0A0301",
"9.	c #400002",
"0.	c #BF0000",
"a.	c #AF0200",
"b.	c #990200",
"c.	c #820000",
"d.	c #BC0502",
"e.	c #260305",
"f.	c #340705",
"g.	c #4C0702",
"h.	c #D20100",
"i.	c #C50000",
"j.	c #B60000",
"k.	c #4E0904",
"l.	c #902224",
"m.	c #7D2020",
"n.	c #6F1A1D",
"o.	c #601415",
"p.	c #4F1311",
"q.	c #400C0A",
"r.	c #3B0E0E",
"s.	c #3A0609",
"t.	c #520D0A",
"u.	c #CC0002",
"v.	c #69090B",
"w.	c #4F0B0E",
"x.	c #840300",
"y.	c #420E0D",
"z.	c #771B1C",
"A.	c #85201E",
"B.	c #A72625",
"C.	c #95100C",
"D.	c #681413",
"E.	c #690803",
"F.	c #B72E2E",
"G.	c #AC0001",
"H.	c #A01112",
"I.	c #B80000",
"J.	c #7F191A",
"K.	c #750000",
"L.	c #AC2227",
"M.	c #BF2B2C",
"N.	c #A52529",
"O.	c #AB1111",
"P.	c #B52125",
"Q.	c #B51117",
"R.	c #B90000",
"S.	c #AF191B",
"T.	c #591516",
"U.	c #2B0B08",
"V.	c #AE0002",
"W.	c #AD1513",
"X.	c #270508",
"Y.	c #6C1716",
"Z.	c #180306",
"`.	c #29090C",
" +	c #932420",
".+	c #4B0F13",
"++	c #3D090D",
"@+	c #CE0000",
"#+	c #8E0300",
"$+	c #840407",
"%+	c #7F0D0D",
"&+	c #3C0804",
"*+	c #43080B",
"=+	c #57130F",
"-+	c #5F0803",
";+	c #561214",
">+	c #671B19",
",+	c #730A0C",
"'+	c #650306",
")+	c #610B05",
"!+	c #8D1E1C",
"~+	c #8A0E0C",
"{+	c #711417",
"]+	c #6B0C0D",
"^+	c #940E12",
"/+	c #971414",
"(+	c #7E0C12",
"_+	c #2D0000",
":+	c #420000",
"<+	c #F20000",
"[+	c #AD2322",
". . . . . . . . . . . . . . . . . . . . . . . . . . . . . . . . . . . . . . . . . . . . . . . . ",
". . . . + @ # $ . % # # & * . % # # & * . . = % $ = . . . % # # % # # # # # . % # # # # . . . . ",
". . . . @ - ; > , . # . ' & , . # . ) @ . . ! ~ - @ . . , . . # . % . # . % , . # . . % . . . . ",
". . . . { ] ^ , , , # , / @ . . # # # ( . . . . _ : . . . . . # . , . # , , , , # # % , . . . . ",
". . . . , < [ { } } # # % - . . # . | # . . . 1 2 3 . . 4 . . # . . , # , 5 } } # , % , . . . . ",
". . . , > 6 ^ @ 6 7 # 8 > ( , , # . / @ . . { 9 , , . . # 0 * & , , , # a 0 7 6 # a } % , . . . ",
". . . , $ # @ b c $ # d 1 # % % # # & * . . & # # % . . e f @ g , 5 % # % h i $ # # # # , . . . ",
". . . , , 0 j / k k 1 < l m n 3 , . . , . . . . . . . . . , 5 , 3 n o l < 1 k k 1 h 0 } , . . . ",
". . . , , o i p q r s t 1 c j 0 3 , , , . . . . . . . . , . , 3 0 j c 1 + s p q u c v 3 , . . . ",
". . . , 3 o < r w x y z A B < l 7 3 , , , . . . . . . , , , 3 7 j < B C D E F G r < o 3 , . . . ",
". . . , 3 ~ H p I b J C K L M g ^ m ; 3 , , , . . , , , 3 n m N g O L P P J J Q p 1 ~ 3 , . . . ",
". . . , } 6 i R S s T U V W X Y g i - 7 a 5 , , , , 5 a 7 - i 1 t X W V V Z s ` T i 7 } , . . . ",
". . . , , 0 h  .b ..T +.@.#.M $.Y = * %.&.n } , , } n &.%.< = O $.B #.@.#.J *.=.-.l ;.5 , . . . ",
". . . , , 3 - * =.>.#.@.O @.#.,.'.).!.~.c ~ n 3 3 n - {.1 {.).'. .#.+ + + #.>.=.| - a , , . . . ",
". . . . , } 7 ^  .].^.#.+ /.+ + (._._.^ Y < j m v :.<.= ^ _.;.H O O /.@.+ X ].= %.7 } , . . . . ",
". . . . , , a ~ < = M $.@.+ = _ ,.-.Y 3 j Y 1 !.<.1 /.:.3 B ,._ = [.+ O $.M t c ~ ; , . . . . . ",
". . . . , , } n - {._ ).}.O = 1 < |./ ~., l { { @.{ ^ 1.-.g i < / = + }.2.Y < - ; 5 , , . . . . ",
". . . . . , , , n j < t {.; Y / %.j ^ / O a < ( 3.< ; O g ^ j %./ _ ; !.t < - n } , . . . . . . ",
". . , , , . , , } 7 h 1 _ , _ /.* %.%./ ~.4.4.3.5.= < &./ %.h 6.7._ 8.= 1 ^ 0 } , , , , , , . . ",
", , , , } 3 3 3 n 7 l 1 + } 9.4.+.= ~.U 0.a.[ b.( c.{ 7.j = /.+.b l 3 #.1 l 7 n a 3 3 } , , , , ",
", } a n 7 m ~ m - l < /.4.5.7 < 3.5.[ : d.[ ] b.( b { O 1 = ( 3.< e.5.J = < j &.~ o m 7 n a } , ",
"n 7 f.:.i < < < {.' 1 + (._ O '.g.( h.i.j.[ 9 3.5.4.#./.4.c.@.k.'.O 1 g.@.1 6.< < < !.i :.&.7 n ",
"l i / 1 _ l.m.n.o.p.q.r.s.4.5.e t.x > u.2 ) e ( c.{ + c.5.( v.w.3.x.b f.f.'.y.p.n.z.A.O 1 * i l ",
"~.= q B.` A.+ = 1 / ).1 -.= @.c.9 L C.: 2 j.3.x.U +.5.( ( R D.E.b #.= 1 ).1 1 -._ + m.l.B.u Y -.",
"B.p F.T J { + 1 c ^ ^ %.%.<./ #.G.: P H.I.a.] 4.{ ( ( 3.z J.b = { g <.i %.^ i < ~.+ K.Z U L.M.u ",
"N.F.p 4.J { /.~.< <.%.%.%.< _ { I.d.0.S O.I.[ 9 9 b.9 H.y ( U = #.= < <.%.%.%.i 1 O #.J U F.F.` ",
",.B q N.l.J.O = 1 * / ~.[.+ { x.G.I.: 0.P.Q.I.R.j.[ S.L.b.5.#.1 x.U + = 1 g g ~.[.@.*.l.B.q B ,.",
"^ i ' g /.m.>.T.$.'.U.; , ( e K.b.V.a.d.2 P.Q.u.u.W.p ] 9 5.{ /.K.3.( , 1.X.'.$.T.Y..._ 1 * i l ",
"n 6 ~ :.i !.' < < / = { , 5 Z.`.q.p.o.>... +N.u q N. +..Y.o..+++}.Z.5 8.V = | | !.< < i j &.6 n ",
", } ; ;.7 m o m - j < O c.4.Y ( M e b.G.I.0.@+..J.i.R.) #+t _ (.5.Y U 5.+ < l - ~ }.m 0 n } } , ",
", , , , } 3 3 a ; 7 ^ -.{ ).).J + (.J e ] a.$+W W %+] #+U ^ &.O J g (.{ 1 h 6 n a } 3 , } , , , ",
". . . . , , } } n m %.= + s.g + 6.|.+ #+) k ^.] ] ^.M $+O < i ).O ).&++ _ i m ; } , , , . , . . ",
". . . . , . , } 0 l / Y q.1 + = < {.1 #.(.!.#+( 5.c.*+< O 1 <.< -.+ -.*+Y / l 0 3 , , . . . . . ",
". . . . . , 5 n j < _ =+-++ /.= = 1 O h U.E.O = = _ /.X.h /.= = = + #. .;+Y | j n 5 , . . . . . ",
". . . . , , } m < t >+v.#.O O O Y } , a -.< :.m v :.< = ; , } 7.Y O #.#.M Y.Y c v 3 , , . . . . ",
". . . , , } 0 l 1 C ,+Z #.@.+ + }.i ~ ~.< - 0 } a n - c 1 ~ i 7 @.+ O #.V ,+C -.^ 0 } , , . . . ",
". . . . , a - < '+A.].{ #.@.@.++k.7./ %.~ ; } , , , n &.i ).B (.q.#.@.#.V ].A.t < - Z., , . . . ",
". . , , 3 6 %._ y S 4.Z { #.=+)+t < l v ; 3 , , , , , ; m j | -+-+=+{ { U J !+y = i 6 3 , , . . ",
". . . , ; - / z B.J 4.~+D {+L Y <.j 8 } , , , . . , , , a 0 j <.= ]+{+P ^+b J B.z / j ; , , . . ",
". . , } 0 %.= F u S./+S D (+= c - n } } , . . . . . , , , } n :.<.= K D  +^+S.q J = %.0 } , . . ",
". . , } 7 %.,+q w q N.V ,.< i _+n } , , . . . . . . . . . , 5 n ~ :+' 1 V B.q M.q k i 7 } , . . ",
". . . } n l ).B.L.O E.<.l ~ 0 l b h.. . . . . . . . . , 5.$ h.} a #.<+> + + t I [+1 l ;.5 . . . ",
". . . , a v h {.%.^ j m n a } ! i.# . . . . . . . . . ( e ; . , , % i = d.:.^ c i l m a , , . . ",
". . , , , a 8 v $ $ n 3 f ! , , , # . . . . . . . . . % : $ 1 , , % j Y @ ;.0 m v 0 a } , , . . ",
". . . , , , 1.} < d., , 0.N . . . # . . . . . . . . . @ = l % . . = @ a.@ , 5 } } 5 , , , . . . ",
". . . . , , , , . 0.h h 0., . . . # . . . . . . . . . @+l o $ . . . , 4.] , , , , , . . . . . . ",
". . . . . . . . . ^ d.d.^ . . % # # # % . . i.. . . . %.! @ + . . > $ b., . . . . . . . . . . . ",
". . . . . . . . . . , , . . . , . . . , . . , . . . . . . . . . . . . . . . . . . . . . . . . . "};
